<svg xmlns="http://www.w3.org/2000/svg" width="600" height="120" viewBox="0 0 600 120" role="img" aria-label="Study Medicine UK Nigeria">

<rect width="600" height="120" fill="#FFFFFF"/><g transform="translate(24,28)">

<g><rect width="64" height="64" rx="14.0" fill="#0B3D5C"/>
<path d="M13.5 15.5 L50.5 52.5 M50.5 15.5 L13.5 52.5" stroke="#174B70" stroke-width="2.4" stroke-linecap="round" fill="none" transform="scale(1.0)"/>
<g transform="scale(1.0)" fill="none" stroke-linecap="round" stroke-linejoin="round">
  <path d="M23 19 C23 26 41 23 41 30 M23 41 C23 48 41 45 41 52 C41 54.2 38.6 55.4 36.2 54.8" stroke="#FFFFFF" stroke-width="3.6"/>
  <path d="M32 16 L32 56" stroke="#0B3D5C" stroke-width="7.6"/>
  <path d="M32 16 L32 56" stroke="#FFFFFF" stroke-width="5.0"/>
  <path d="M41 30 C41 37 23 34 23 41" stroke="#FFFFFF" stroke-width="3.6"/>
  <circle cx="23" cy="18.6" r="2.9" fill="#FFFFFF" stroke="none"/>
  <circle cx="32" cy="11.2" r="3.5" fill="#B8322F" stroke="none"/>
</g></g>
<path d="M91.82408813476563 38.55505145263672Q89.993529296875 38.55505145263672 88.28273153686524 38.06460290527343Q86.57193377685547 37.57415435791015 85.29828680419922 36.775661743164065L85.53628680419922 31.72189709472656H87.1540219116211L88.44449975585937 37.41605145263672L86.4622939453125 36.515220581054685L86.43985278320312 35.449661743164064Q87.43741162109374 36.07338970947266 88.24210647583007 36.47314340209961Q89.04680133056641 36.87289709472656 89.87708074951172 37.0543713684082Q90.70736016845703 37.23584564208984 91.75064697265626 37.23584564208984Q93.13494854736328 37.23584564208984 94.18171701049805 36.7568713684082Q95.22848547363282 36.27789709472656 95.81285684204101 35.33635659790039Q96.39722821044921 34.39481610107422 96.39722821044921 33.0327865600586Q96.39722821044921 31.904330627441407 95.92650024414063 31.1303232421875Q95.45577227783204 30.35631585693359 94.59362149047851 29.77236730957031Q93.731470703125 29.18841876220703 92.55728680419922 28.67824963378906L91.30472796630859 28.10041876220703Q89.7412353515625 27.37570556640625 88.46343020629882 26.472238677978517Q87.18562506103515 25.56877178955078 86.44043020629883 24.291220336914062Q85.6952353515625 23.013668884277344 85.6952353515625 21.189396850585936Q85.6952353515625 19.228617431640625 86.6472353515625 17.81804025268555Q87.5992353515625 16.40746307373047 89.30416912841797 15.637191040039061Q91.00910290527344 14.866919006347654 93.2282939453125 14.866919006347654Q94.93951452636719 14.866919006347654 96.35527917480469 15.320224151611326Q97.7710438232422 15.773529296874997 98.81909527587891 16.555698425292967L98.63226440429688 21.348514526367186H97.03713958740235L95.69532348632812 15.914801330566405L97.76202191162109 16.78213958740234L97.80758074951171 18.08536016845703Q96.61741162109375 17.01300714111328 95.56570938110352 16.599565979003906Q94.51400714111328 16.18612481689453 93.23849975585938 16.18612481689453Q92.06448498535156 16.18612481689453 91.10305477905274 16.61970938110351Q90.14162457275391 17.053293945312497 89.56303262329101 17.92386016845703Q88.98444067382812 18.79442639160156 88.98444067382812 20.099676513671874Q88.98444067382812 21.199742736816404 89.4748892211914 21.99925012207031Q89.96533776855469 22.79875750732422 90.8243451538086 23.396900909423827Q91.6833525390625 23.995044311523436 92.78902905273438 24.505044311523434L94.07524963378907 25.088316345214842Q95.84919818115235 25.87558837890625 97.13286730957032 26.79061410522461Q98.41653643798828 27.705639831542967 99.11642614746094 28.93516555786133Q99.8163158569336 30.16469128417969 99.8163158569336 31.960742736816407Q99.8163158569336 33.932911865234374 98.88684158325196 35.41998904418945Q97.95736730957032 36.90706622314453 96.18154382324218 37.73105883789063Q94.40572033691406 38.55505145263672 91.82408813476563 38.55505145263672Z M105.78483801269532 23.60610290527344V22.128794189453124H111.59748498535157V23.60610290527344ZM107.96763220214844 38.46427203369141Q106.049 38.46427203369141 104.93940447998048 37.4762279663086Q103.82980895996094 36.48818389892578 103.82980895996094 34.41655169677735Q103.82980895996094 33.53339733886719 103.83550381469726 32.77732015991211Q103.8411986694336 32.021242980957034 103.84680895996094 30.910970947265625L103.88080895996094 23.60610290527344H101.45271319580078V22.417794189453126L105.22891186523438 21.856794189453122L103.81331634521484 22.847897094726562L105.80200714111328 17.19913244628906H107.71776416015625L107.57003619384766 22.67279418945312V23.125676513671873V34.16087518310547Q107.57003619384766 35.419382568359374 108.077231048584 35.96933111572265Q108.58442590332032 36.51927966308594 109.40093328857422 36.51927966308594Q110.00749212646485 36.51927966308594 110.50949951171876 36.27822082519531Q111.01150689697266 36.037161987304685 111.52762457275391 35.57221343994141L112.15628631591798 36.167213439941406Q111.75406573486329 36.89702954101563 111.16807312011719 37.41187875366211Q110.5820805053711 37.9267279663086 109.79829013061524 38.1955Q109.01449975585938 38.46427203369141 107.96763220214844 38.46427203369141Z M119.45841925048829 38.46427203369141Q117.40753692626953 38.46427203369141 116.22373916625978 37.17541543579102Q115.03994140625001 35.886558837890625 115.06255169677735 32.83335302734375L115.15282373046875 23.40805145263672L116.0126912841797 24.342205810546872L112.99723535156251 23.696036682128906V22.739441162109372L118.52567602539062 21.77230157470703L118.92144067382813 22.095132446289064L118.76844067382812 26.570389709472657V32.71097045898438Q118.76844067382812 34.606794189453126 119.36700689697267 35.31636779785156Q119.9655731201172 36.02594140625 121.15216149902344 36.02594140625Q121.88417626953125 36.02594140625 122.63574249267579 35.72572082519531Q123.38730871582032 35.42550024414062 124.14465435791016 34.84750024414062Q124.902 34.26950024414062 125.60035302734376 33.481551696777345L126.0081838989258 34.658470703125H125.5841986694336Q124.83025012207031 35.80206622314453 123.86380157470703 36.66294854736328Q122.89735302734375 37.52383087158203 121.79524273681642 37.99405145263672Q120.69313244628907 38.46427203369141 119.45841925048829 38.46427203369141ZM125.22939733886719 38.35088232421875 125.0476693725586 34.701154357910156V34.62737493896484L125.10427966308595 24.13854406738281L122.92557360839844 23.696036682128906V22.767492614746093L128.4655731201172 21.77230157470703L128.8613377685547 22.095132446289064L128.7423377685547 26.570389709472657V36.62401477050781L130.78487469482423 36.99257360839844V38.00561029052734Z M139.41182373046877 38.46427203369141Q137.55865460205078 38.46427203369141 136.10490090942383 37.51218746948243Q134.6511472167969 36.56010290527344 133.81228323364257 34.74407717895508Q132.9734192504883 32.928051452636716 132.9734192504883 30.33894854736328Q132.9734192504883 27.642066223144532 133.91394497680665 25.701514770507814Q134.854470703125 23.760963317871095 136.42969128417968 22.712742736816406Q138.0049118652344 21.664522155761716 139.90908099365234 21.664522155761716Q140.88301477050783 21.664522155761716 141.72451477050782 21.97868389892578Q142.56601477050782 22.292845642089844 143.3115478820801 22.96681253051758Q144.05708099365236 23.64077941894531 144.70358837890626 24.76261029052734H145.27513244628906L144.94125012207033 26.098985229492186Q143.7944411621094 24.8052939453125 142.91461386108398 24.26962481689453Q142.0347865600586 23.733955688476563 140.92894091796876 23.733955688476563Q139.82819818115235 23.733955688476563 138.90323486328126 24.41726821899414Q137.97827154541017 25.100580749511717 137.43062075805665 26.535121246337887Q136.88296997070313 27.96966174316406 136.88296997070313 30.208897094726563Q136.88296997070313 32.340691284179684 137.39662075805666 33.71003692626953Q137.91027154541015 35.07938256835938 138.82962457275391 35.73438995361328Q139.74897760009767 36.389397338867184 140.91788946533205 36.389397338867184Q142.1262424926758 36.389397338867184 143.06514697265627 35.658143646240234Q144.00405145263673 34.92688995361328 144.89535302734376 33.655808959960936L145.1784044799805 35.065625061035156H144.6524192504883Q144.06336779785158 36.118779418945316 143.28723178100586 36.88352572631836Q142.51109576416016 37.648272033691406 141.5535700378418 38.05627203369141Q140.59604431152346 38.46427203369141 139.41182373046877 38.46427203369141ZM144.23472082519532 38.373661743164064 144.04227966308594 35.187529296875V35.080088134765624V24.83841925048828L144.12694140625 24.475808959960936V15.839499755859375L141.65379418945312 15.386110046386719V14.45195568847656L147.42601428222656 12.985191040039062L147.86172747802735 13.296463073730468L147.72572747802735 19.10995568847656V36.65240447998047L149.8830071411133 36.986963317871094V38.0Z M153.52083801269532 46.445419250488285Q152.80717626953125 46.445419250488285 152.14468365478518 46.20478323364258Q151.48219104003908 45.964147216796874 151.03500357055665 45.50276489257813Q150.58781610107422 45.041382568359374 150.4747646484375 44.40183850097657Q150.61059552001956 43.59858123779297 151.23050357055666 43.174342315673826Q151.85041162109377 42.75010339355469 152.6710071411133 42.75010339355469Q153.33366888427736 42.75010339355469 153.95034896850586 43.03595999145508Q154.5670290527344 43.32181658935547 155.21235253906252 44.067787048339845L156.11369079589846 45.05804431152344L155.2640290527344 45.5507060546875L154.45363934326173 45.199992858886716Q155.3389923706055 44.69526489257812 156.0253637390137 43.90366555786133Q156.7117351074219 43.11206622314453 157.28726821899414 42.022797760009766Q157.8628013305664 40.933529296875 158.35613958740237 39.589683654785155L159.26139685058595 37.10630157470703L159.34622772216798 36.85758837890625L162.25238208007815 28.780191528320312L164.64563220214845 22.128794189453124H166.16883801269532L159.7227646484375 39.26857312011719Q158.86036016845705 41.58344830322265 157.95868365478518 43.18619842529297Q157.0570071411133 44.78894854736328 155.99144830322268 45.61718389892579Q154.92588946533203 46.445419250488285 153.52083801269532 46.445419250488285ZM158.86664697265627 39.42938208007813 151.89425012207033 22.128794189453124H155.99147735595704L160.6300805053711 34.755677001953124L160.23431585693362 36.20851501464844ZM150.7479485473633 23.119389709472657V22.128794189453124H159.09872747802737V23.113779418945313L155.729344909668 23.606441162109373H153.71886041259768ZM161.67472033691408 23.107999999999997V22.128794189453124H167.5007865600586V23.119389709472657L165.11041162109376 23.53283087158203H164.59446307373048Z  M175.8931472167969 38.0V36.88513244628906L179.19726489257815 36.460132446289066H179.92130157470706L183.03331634521487 36.88513244628906V38.0ZM176.130470703125 16.536838012695313V15.421970458984372H180.15845593261722L180.1696765136719 17.018279174804686H179.8752353515625ZM178.80082373046878 38.0V15.670514526367185H180.13108099365238L180.27286041259768 26.179249633789063V38.0ZM187.31066223144535 38.0 179.55375750732424 17.23163934326172H179.1624192504883V15.421970458984372H182.96571270751954L189.8139485473633 33.87181707763672H188.9576617431641L189.14483087158206 33.33886853027344L195.64711816406253 15.421970458984372H196.90376513671876V16.955551208496093H196.604051940918L196.3208313598633 17.714095275878904L189.0059266357422 38.0ZM193.3165960083008 38.0V36.88513244628906L197.09519152832033 36.403691284179686H198.49533825683596L202.59115435791017 36.88513244628906V38.0ZM195.77189758300784 38.0Q195.83989758300783 36.453 195.86539758300785 34.68491543579101Q195.89089758300784 32.91683087158203 195.9022027282715 31.09171319580078Q195.91350787353517 29.26659552001953 195.91350787353517 27.576970458984373L195.9415593261719 15.421970458984372H199.9480071411133Q199.8970071411133 16.951970458984373 199.86300714111331 18.72005502319336Q199.8290071411133 20.488139587402344 199.82620199584963 22.318613861083982Q199.82339685058597 24.149088134765623 199.82339685058597 25.922867553710937V27.40288232421875Q199.82339685058597 29.165272033691405 199.82620199584963 31.029661743164063Q199.8290071411133 32.89405145263672 199.86300714111331 34.670636016845705Q199.8970071411133 36.44722058105469 199.9480071411133 38.0ZM197.43366937255863 17.018279174804686V15.421970458984372H202.56310290527347V16.536838012695313L198.49533825683596 17.018279174804686Z M212.84776464843753 38.46427203369141Q210.6214411621094 38.46427203369141 208.87111767578125 37.503772033691405Q207.12079418945314 36.54327203369141 206.12680157470703 34.71883087158203Q205.13280895996095 32.894389709472655 205.13280895996095 30.305455932617186Q205.13280895996095 27.614860412597658 206.1722758483887 25.68544497680664Q207.21174273681643 23.75602954101562 208.94506622314455 22.71027584838867Q210.67838970947267 21.664522155761716 212.73454406738284 21.664522155761716Q214.6195145263672 21.664522155761716 216.04955859375002 22.462930206298825Q217.47960266113284 23.261338256835934 218.28421295166018 24.683051452636718Q219.08882324218752 26.1047646484375 219.08882324218752 28.0257646484375Q219.08882324218752 28.57554406738281 219.04054382324222 28.989661743164064Q218.9922644042969 29.403779418945312 218.8902644042969 29.777272033691403H206.6754116210938V28.582676513671874H213.55237542724612Q214.80391949462893 28.582676513671874 215.23419152832034 28.106845642089844Q215.66446356201175 27.63101477050781 215.66446356201175 26.618823730468748Q215.66446356201175 25.377823730468748 215.3039819030762 24.55553692626953Q214.94350024414064 23.73325012207031 214.2876472167969 23.31615817260742Q213.63179418945316 22.89906622314453 212.75137493896486 22.89906622314453Q211.80890423583986 22.89906622314453 210.94267984008792 23.551099334716795Q210.07645544433595 24.20313244628906 209.53671270751954 25.682470703125Q208.99696997070316 27.161808959960936 208.99696997070316 29.68341925048828Q208.99696997070316 31.75758837890625 209.65733395385746 33.18890090942383Q210.31769793701173 34.62021343994141 211.48278988647462 35.354441406250004Q212.6478818359375 36.08866937255859 214.14523486328127 36.08866937255859Q215.55775701904298 36.08866937255859 216.61566149902347 35.56099285888672Q217.67356597900394 35.03331634521484 218.50741162109378 34.051573608398435L219.21461743164065 34.59438970947266Q218.56317626953128 35.87466174316406 217.64559909057618 36.73307717895508Q216.7280219116211 37.591492614746095 215.54702929687502 38.02788232421875Q214.36603668212894 38.46427203369141 212.84776464843753 38.46427203369141Z M228.2198237304688 38.46427203369141Q226.3666546020508 38.46427203369141 224.91290090942385 37.51218746948243Q223.4591472167969 36.56010290527344 222.62028323364262 34.74407717895508Q221.7814192504883 32.928051452636716 221.7814192504883 30.33894854736328Q221.7814192504883 27.642066223144532 222.72194497680667 25.701514770507814Q223.66247070312502 23.760963317871095 225.23769128417973 22.712742736816406Q226.8129118652344 21.664522155761716 228.71708099365236 21.664522155761716Q229.69101477050785 21.664522155761716 230.53251477050785 21.97868389892578Q231.37401477050784 22.292845642089844 232.1195478820801 22.96681253051758Q232.86508099365238 23.64077941894531 233.51158837890628 24.76261029052734H234.08313244628908L233.74925012207035 26.098985229492186Q232.60244116210941 24.8052939453125 231.72261386108403 24.26962481689453Q230.8427865600586 23.733955688476563 229.73694091796878 23.733955688476563Q228.63619818115237 23.733955688476563 227.71123486328128 24.41726821899414Q226.7862715454102 25.100580749511717 226.23862075805667 26.535121246337887Q225.69096997070315 27.96966174316406 225.69096997070315 30.208897094726563Q225.69096997070315 32.340691284179684 226.20462075805665 33.71003692626953Q226.71827154541018 35.07938256835938 227.63762457275394 35.73438995361328Q228.5569776000977 36.389397338867184 229.72588946533205 36.389397338867184Q230.93424249267582 36.389397338867184 231.8731469726563 35.658143646240234Q232.81205145263675 34.92688995361328 233.70335302734378 33.655808959960936L233.9864044799805 35.065625061035156H233.46041925048831Q232.87136779785158 36.118779418945316 232.09523178100588 36.88352572631836Q231.31909576416018 37.648272033691406 230.36157003784183 38.05627203369141Q229.40404431152348 38.46427203369141 228.2198237304688 38.46427203369141ZM233.04272082519535 38.373661743164064 232.85027966308596 35.187529296875V35.080088134765624V24.83841925048828L232.93494140625003 24.475808959960936V15.839499755859375L230.46179418945314 15.386110046386719V14.45195568847656L236.23401428222658 12.985191040039062L236.66972747802737 13.296463073730468L236.53372747802737 19.10995568847656V36.65240447998047L238.69100714111332 36.986963317871094V38.0Z M240.51457360839848 38.0V36.986963317871094L243.78077227783206 36.42052215576172H245.34192614746098L248.52788946533207 36.986963317871094V38.0ZM242.62017675781254 38.0Q242.6767870483399 37.19555883789062 242.69659219360355 35.926084564208985Q242.7163973388672 34.65661029052735 242.73339733886723 33.292041513222145Q242.75039733886723 31.92747273591694 242.75039733886723 30.84403167060718V29.39021794112356Q242.75039733886723 27.938331718578674 242.7362024841309 26.948697578296326Q242.72200762939457 25.959063438013978 242.65400762939456 24.898441162109375L240.31652215576176 24.462051452636718V23.561727966308595L246.1115216674805 21.664522155761716L246.56423486328129 21.998112488629065L246.44523486328129 26.570389709472657V30.843290731461323Q246.44523486328129 31.92693687814181 246.46223486328128 33.29177358433458Q246.47923486328128 34.65661029052735 246.50473486328127 35.926084564208985Q246.5302348632813 37.19555883789062 246.57545544433597 38.0ZM244.48986755371098 18.633786560058592Q243.5282478929207 18.633786560058592 242.8516056053959 18.016730820365574Q242.17496331787112 17.39967508067255 242.17496331787112 16.395006668754245Q242.17496331787112 15.407338256835935 242.8516056053959 14.790404479980467Q243.5282478929207 14.173470703124998 244.48986755371098 14.173470703124998Q245.46848721450127 14.173470703124998 246.13662950202604 14.791136257005771Q246.8047717895508 15.408801810886544 246.8047717895508 16.393055263353432Q246.8047717895508 17.394308715820312 246.13662950202604 18.014047637939452Q245.46848721450127 18.633786560058592 244.48986755371098 18.633786560058592Z M258.32259552001955 38.46427203369141Q256.02810290527344 38.46427203369141 254.30047427368166 37.4953565979004Q252.57284564208987 36.52644116210938 251.61574273681643 34.685Q250.65863983154298 32.843558837890626 250.65863983154298 30.248676513671874Q250.65863983154298 27.478014770507812 251.75225012207034 25.56568389892578Q252.8458604125977 23.653353027343748 254.66970962524417 22.658937591552732Q256.49355883789065 21.664522155761716 258.67858074951175 21.664522155761716Q260.258227722168 21.664522155761716 261.4872460632324 22.236404479980468Q262.7162644042969 22.80828680419922 263.47837469482425 23.788084564208987Q264.2404849853516 24.76788232421875 264.38838208007815 25.980154357910155Q264.23044830322266 26.70436016845703 263.8033196716309 27.060937347412107Q263.3761910400391 27.417514526367185 262.6519852294922 27.417514526367185Q261.85961029052737 27.417514526367185 261.3198530273438 26.88880871582031Q260.7800957641602 26.360102905273436 260.6381472167969 25.20305908203125L260.12033825683596 22.54358837890625L261.80438208007814 23.693132446289063Q261.10738208007814 23.22206622314453 260.39287469482423 23.06056622314453Q259.6783673095703 22.89906622314453 259.00465411376956 22.89906622314453Q257.7439480590821 22.89906622314453 256.72573843383793 23.673496429443357Q255.70752880859376 24.447926635742185 255.12085968017578 25.94443402099609Q254.53419055175783 27.440941406249998 254.53419055175783 29.621367797851562Q254.53419055175783 31.655757507324218 255.15783395385745 33.10968032836914Q255.78147735595707 34.563603149414064 256.9126538696289 35.32613626098633Q258.0438303833008 36.08866937255859 259.58062457275395 36.08866937255859Q260.4314702148438 36.08866937255859 261.16884158325195 35.87311053466797Q261.90621295166017 35.65755169677735 262.56419461059573 35.20076489257813Q263.2221762695313 34.74397808837891 263.80085278320314 34.04018389892578L264.5194483032227 34.59438970947266Q263.89061743164064 35.88044116210938 262.99854025268553 36.738856597900394Q262.1064630737305 37.597272033691404 260.9509704589844 38.030772033691406Q259.7954778442383 38.46427203369141 258.32259552001955 38.46427203369141Z M266.45657360839846 38.0V36.986963317871094L269.72277227783206 36.42052215576172H271.283926147461L274.4698894653321 36.986963317871094V38.0ZM268.56217675781255 38.0Q268.61878704833987 37.19555883789062 268.6385921936036 35.926084564208985Q268.65839733886725 34.65661029052735 268.67539733886724 33.292041513222145Q268.69239733886724 31.92747273591694 268.69239733886724 30.84403167060718V29.39021794112356Q268.69239733886724 27.938331718578674 268.6782024841309 26.948697578296326Q268.6640076293946 25.959063438013978 268.5960076293946 24.898441162109375L266.25852215576174 24.462051452636718V23.561727966308595L272.05352166748054 21.664522155761716L272.5062348632813 21.998112488629065L272.3872348632813 26.570389709472657V30.843290731461323Q272.3872348632813 31.92693687814181 272.4042348632813 33.29177358433458Q272.4212348632813 34.65661029052735 272.44673486328134 35.926084564208985Q272.4722348632813 37.19555883789062 272.517455444336 38.0ZM270.43186755371096 18.633786560058592Q269.47024789292067 18.633786560058592 268.7936056053959 18.016730820365574Q268.1169633178711 17.39967508067255 268.1169633178711 16.395006668754245Q268.1169633178711 15.407338256835935 268.7936056053959 14.790404479980467Q269.47024789292067 14.173470703124998 270.43186755371096 14.173470703124998Q271.41048721450125 14.173470703124998 272.07862950202605 14.791136257005771Q272.74677178955085 15.408801810886544 272.74677178955085 16.393055263353432Q272.74677178955085 17.394308715820312 272.07862950202605 18.014047637939452Q271.41048721450125 18.633786560058592 270.43186755371096 18.633786560058592Z M276.447470703125 38.0V36.986963317871094L279.7136693725586 36.42052215576172H281.2804335327149L284.4439556884766 36.986963317871094V38.0ZM278.55868414306644 38.0Q278.61529443359376 37.19555883789062 278.6350995788574 35.926084564208985Q278.65490472412114 34.65661029052735 278.67190472412113 33.2936360168457Q278.68890472412113 31.930661743164062 278.68890472412113 30.848441162109374V29.295323486328122Q278.68890472412113 28.315272033691407 278.6747098693848 27.592772033691407Q278.66051501464847 26.870272033691407 278.6435150146485 26.232772033691404Q278.6265150146485 25.595272033691405 278.5925150146485 24.898441162109375L276.25502954101563 24.462051452636718V23.561727966308595L281.74947021484377 21.664522155761716L282.2021834106446 21.998573608398438L282.3837422485352 25.574860412597655V25.637080993652344V30.848441162109374Q282.3837422485352 31.930661743164062 282.4007422485352 33.2936360168457Q282.4177422485352 34.65661029052735 282.44324224853517 35.926084564208985Q282.4687422485352 37.19555883789062 282.5139628295899 38.0ZM286.460639831543 38.0V36.986963317871094L289.6875664672852 36.42052215576172H291.23733062744145L294.44029394531253 36.986963317871094V38.0ZM288.52119152832034 38.0Q288.57780181884766 37.19555883789062 288.60041210937504 35.93458456420898Q288.62302239990237 34.67361029052734 288.6372172546387 33.310636016845706Q288.65141210937503 31.947661743164062 288.65141210937503 30.848441162109374V27.558757507324216Q288.65141210937503 25.59493377685547 288.0867613220215 24.865808715820314Q287.522110534668 24.136683654785156 286.25052215576176 24.136683654785156Q285.5298970947266 24.136683654785156 284.7814742736817 24.402988800048824Q284.03305145263676 24.669293945312496 283.2760440673828 25.199183654785152Q282.51903668212896 25.72907336425781 281.73007336425786 26.51141162109375L281.4908894653321 25.313235351562497H281.8519776000977Q282.68991137695315 24.192926635742186 283.6649444885254 23.376926635742187Q284.63997760009767 22.560926635742184 285.7399592590332 22.11272439575195Q286.83994091796876 21.664522155761716 287.9904997558594 21.664522155761716Q290.0644997558594 21.664522155761716 291.2053746948243 23.010327301025388Q292.3462496337891 24.35613244628906 292.3462496337891 27.36665460205078V30.848441162109374Q292.3462496337891 31.947661743164062 292.3632496337891 33.310636016845706Q292.3802496337891 34.67361029052734 292.4057496337891 35.93458456420898Q292.4312496337891 37.19555883789062 292.4764702148438 38.0Z M304.30776464843757 38.46427203369141Q302.08144116210946 38.46427203369141 300.33111767578134 37.503772033691405Q298.5807941894532 36.54327203369141 297.5868015747071 34.71883087158203Q296.592808959961 32.894389709472655 296.592808959961 30.305455932617186Q296.592808959961 27.614860412597658 297.63227584838876 25.68544497680664Q298.67174273681644 23.75602954101562 300.40506622314456 22.71027584838867Q302.13838970947273 21.664522155761716 304.1945440673829 21.664522155761716Q306.07951452636723 21.664522155761716 307.50955859375006 22.462930206298825Q308.9396026611329 23.261338256835934 309.7442129516602 24.683051452636718Q310.54882324218755 26.1047646484375 310.54882324218755 28.0257646484375Q310.54882324218755 28.57554406738281 310.50054382324225 28.989661743164064Q310.45226440429695 29.403779418945312 310.3502644042969 29.777272033691403H298.1354116210938V28.582676513671874H305.0123754272461Q306.26391949462896 28.582676513671874 306.6941915283204 28.106845642089844Q307.1244635620118 27.63101477050781 307.1244635620118 26.618823730468748Q307.1244635620118 25.377823730468748 306.7639819030762 24.55553692626953Q306.4035002441407 23.73325012207031 305.74764721679696 23.31615817260742Q305.0917941894532 22.89906622314453 304.2113749389649 22.89906622314453Q303.2689042358399 22.89906622314453 302.40267984008796 23.551099334716795Q301.536455444336 24.20313244628906 300.9967127075196 25.682470703125Q300.4569699707032 27.161808959960936 300.4569699707032 29.68341925048828Q300.4569699707032 31.75758837890625 301.1173339538575 33.18890090942383Q301.7776979370118 34.62021343994141 302.94278988647466 35.354441406250004Q304.1078818359376 36.08866937255859 305.60523486328134 36.08866937255859Q307.017757019043 36.08866937255859 308.07566149902345 35.56099285888672Q309.13356597900395 35.03331634521484 309.9674116210938 34.051573608398435L310.6746174316407 34.59438970947266Q310.0231762695313 35.87466174316406 309.1055990905762 36.73307717895508Q308.18802191162115 37.591492614746095 307.0070292968751 38.02788232421875Q305.826036682129 38.46427203369141 304.30776464843757 38.46427203369141Z" fill="#0F1E2E"/>
<path d="M89.5370913362503 59.213111295700074Q88.4576797914505 59.213111295700074 87.64938838005065 58.80331003427506Q86.84109696865082 58.39350877285003 86.39615567922593 57.668576619625085Q85.95121438980102 56.943644466400144 85.95121438980102 55.99997282505035V50.174921874999995H87.45506255149841V55.87762474060058Q87.45506255149841 56.45343866825104 87.71055220842362 56.900850615501405Q87.96604186534881 57.34826256275177 88.43260369062423 57.60501946687698Q88.89916551589965 57.86177637100219 89.5370913362503 57.86177637100219Q90.17673819065094 57.86177637100219 90.64203276872635 57.60501946687698Q91.10732734680175 57.34826256275177 91.36068923950195 56.900850615501405Q91.61405113220215 56.45343866825104 91.61405113220215 55.87762474060058V50.174921874999995H93.11789929389953V55.99997282505035Q93.11789929389953 56.943644466400144 92.67209748744963 57.668576619625085Q92.22629568099975 58.39350877285003 91.42139928102493 58.80331003427506Q90.61650288105011 59.213111295700074 89.5370913362503 59.213111295700074Z M98.02177647914887 56.81795499324799V55.36548907279968Q98.30937082614899 54.90582488059997 98.59139534082414 54.50353298902512Q98.87341985549926 54.101241097450256 99.18931715097428 53.70741320610046Q99.50521444644929 53.31358531475067 99.879485729599 52.880987100601196L102.28262196865082 50.174921874999995H104.16662386264801L100.38790355529785 54.39722539424896L100.2799489768982 54.365433320999145ZM96.94020032730103 59.08V50.174921874999995H98.44404848899842V52.89597228050232L98.41751363124847 55.000320520401L98.44404848899842 55.73512837409973V59.08ZM102.44236223545074 59.08 99.53078117694855 54.823410038948055 100.47351825084687 53.68416574954986 104.21906834449769 59.08Z  M113.52875808734893 55.77762310504913Q113.13899749774933 55.77762310504913 112.86936311502456 55.509709756374356Q112.5997287322998 55.24179640769958 112.5997287322998 54.853756852149964Q112.5997287322998 54.46571729660034 112.86936311502456 54.197803947925564Q113.13899749774933 53.9298905992508 113.52875808734893 53.9298905992508Q113.91851867694854 53.9298905992508 114.18815305967331 54.197803947925564Q114.45778744239807 54.46571729660034 114.45778744239807 54.853756852149964Q114.45778744239807 55.24179640769958 114.18815305967331 55.509709756374356Q113.91851867694854 55.77762310504913 113.52875808734893 55.77762310504913Z  M123.44458157730102 59.08V50.174921874999995H125.15507493209839L128.34489226055146 55.23724540710449Q128.52619250965117 55.525498547554015 128.73972183895108 55.903117785453794Q128.95325116825103 56.28073702335357 129.18588331890106 56.74886521577835Q129.41851546955107 57.21699340820312 129.64734587860107 57.78016842365265H129.47221041870117Q129.42530549240112 57.27478921890258 129.39537562322616 56.757440109252926Q129.3654457540512 56.24009099960327 129.35086402130128 55.78109909772873Q129.33628228855133 55.32210719585419 129.33628228855133 55.00415946960449V50.174921874999995H130.86078285884855V59.08H129.14177844715118L126.27413081359863 54.535069351196285Q126.02029835414886 54.1239370059967 125.78757209014893 53.71942323684692Q125.55484582614898 53.31490946769714 125.28259961557387 52.79616872072219Q125.01035340499877 52.27742797374725 124.62043814849854 51.538149371147156H124.84166507434844Q124.87671098899841 52.19122160434723 124.90664085817338 52.770228819847105Q124.93657072734833 53.34923603534698 124.9549542016983 53.80029505729675Q124.97333767604827 54.25135407924652 124.97333767604827 54.526558294296265V59.08Z M136.1884313014984 50.174921874999995V59.08H134.68458313980102V50.174921874999995Z M143.81101262454987 59.19953125Q142.59069807415008 59.19953125 141.66925870542525 58.64457145452499Q140.74781933670045 58.089611659049986 140.23201981430054 57.06549170732498Q139.71622029190064 56.041371755599975 139.71622029190064 54.63687956809997Q139.71622029190064 53.20494494915008 140.24320653562546 52.17996448040009Q140.77019277935028 51.154984011650086 141.68398160820007 50.605187318325044Q142.59777043704986 50.055390625 143.75650421504974 50.055390625Q144.48583306674956 50.055390625 145.11736209754943 50.26887289762497Q145.7488911283493 50.48235517024994 146.2450399291992 50.87771586894989Q146.74118873004915 51.27307656764984 147.06093482379913 51.814863047599786Q147.38068091754914 52.35664952754974 147.48644389514922 53.00900241374969H145.95017842655182Q145.83681196575165 52.63720507144928 145.63982068662642 52.34300892829895Q145.44282940750122 52.04881278514862 145.16692262535094 51.83905492067337Q144.89101584320068 51.62929705619812 144.54217012052536 51.51973233699799Q144.19332439785003 51.41016761779785 143.77452801589965 51.41016761779785Q143.0432293498993 51.41016761779785 142.46397335414886 51.78088593959808Q141.88471735839843 52.15160426139831 141.55208028917312 52.86954138517379Q141.2194432199478 53.587478508949275 141.2194432199478 54.62655336380005Q141.2194432199478 55.66055922985077 141.55162650232313 56.37808962345123Q141.88380978469849 57.095620017051694 142.46899528627395 57.47018713712692Q143.05418078784942 57.84475425720215 143.81789676074982 57.84475425720215Q144.51242847805023 57.84475425720215 145.02680280332567 57.57061556577682Q145.54117712860108 57.2964768743515 145.82133943920135 56.7921161365509Q146.10150174980163 56.287755398750306 146.10150174980163 55.60220530509949L146.4645392549515 55.662784390449524H143.99418857460023V54.46070886135101H147.56423332099914V55.50889301300049Q147.56423332099914 56.64725672245025 147.08003764514922 57.47469801187515Q146.59584196929933 58.302139301300045 145.7499701488495 58.75083527565002Q144.90409832839967 59.19953125 143.81101262454987 59.19953125Z M151.12825813980103 59.08V50.174921874999995H156.840668542099V51.45090775489807H152.63210630149842V53.95279516220093H156.53576974124908V55.215012769699094H152.63210630149842V57.804014120101925H156.87208416194918V59.08Z M160.48564251480104 59.08V50.174921874999995H163.76086588439944Q164.78701948699953 50.174921874999995 165.48003517684938 50.53224837779999Q166.17305086669924 50.88957488059997 166.52458903369904 51.52748720407486Q166.87612720069887 52.16539952754974 166.87612720069887 53.00330819129944Q166.87612720069887 53.844658923149105 166.52200748262408 54.468036570549Q166.16788776454928 55.09141421794891 165.47097621974947 55.43248501062393Q164.77406467494967 55.77355580329895 163.7410269361496 55.77355580329895H161.35666083869936V54.513966803550716H163.5616023880005Q164.18766919670105 54.513966803550716 164.5797122174263 54.336172459125514Q164.97175523815156 54.15837811470031 165.15865559635165 53.821031730175015Q165.3455559545517 53.48368534564972 165.3455559545517 53.00330819129944Q165.3455559545517 52.514419980049134 165.15865559635165 52.166841504573824Q164.97175523815156 51.81926302909851 164.57758445320133 51.631236593723294Q164.18341366825106 51.44321015834808 163.5530913311005 51.44321015834808H161.98949067649843V59.08ZM165.51552831230165 59.08 163.3570816761017 55.04735311985016H165.00780940589905L167.20899955329895 59.08Z M171.90867192649844 50.174921874999995V59.08H170.40482376480105V50.174921874999995Z M175.0972691082001 59.08 178.2307694458008 50.174921874999995H180.11699650039677L183.31126415004735 59.08H181.6719248651505L180.02943898429874 54.32335516929626Q179.80965075244907 53.65084743499756 179.56148223867422 52.781035804748534Q179.31331372489933 51.91122417449951 179.0035341619492 50.758466958999634H179.3150683187485Q179.01298635234835 51.919735231399535 178.7708885144234 52.79805791854858Q178.52879067649846 53.67638060569763 178.32521109809878 54.32335516929626L176.73479324569706 59.08ZM176.87090303649904 56.81748442649841V55.59131442070007H181.53763022174837V56.81748442649841Z" fill="#5B6B7B"/>
</g><rect x="0" y="118" width="600" height="2" fill="#0B3D5C"/>
</svg>
